<?xml version="1.0" encoding="utf-8"?>
<!-- Generator: Adobe Illustrator 19.0.0, SVG Export Plug-In . SVG Version: 6.00 Build 0)  -->
<svg version="1.1" id="Layer_3" xmlns="http://www.w3.org/2000/svg" xmlns:xlink="http://www.w3.org/1999/xlink" x="0px" y="0px"
	 viewBox="1 32.9 257 90" style="enable-background:new 1 32.9 257 90;" xml:space="preserve">
<style type="text/css">
	.st0{fill:#17479D;}
	.st1{fill:url(#SVGID_1_);}
	.st2{fill:url(#SVGID_2_);}
</style>
<g>
	<g>
		<path class="st0" d="M83,58.5c0,0-5.2-13.9-19.8-21c0,0-18.1-10.6-39.8,0.4c0,0-10.7,4.1-18.8,18.9c0,0-6.3,12.8-2.4,19.2
			c0,0,3.5,6.4,15.8,10.2c18.1,5.6,56.4,2.7,72.9-24.1c0,0-15.9,6.2-35.4,7.6c0,0,13.9,2.9,30.3-4c0,0-8.7,9-39.5,13.8
			c0,0-19.2,3.6-27.4-4.6c0,0-9.9-9.3,6.4-25.6c0,0,13.7-13.3,33.4-4.1c0,0,9.9,3.5,16.4,16.4C75,61.6,81.3,60.4,83,58.5z"/>
		<linearGradient id="SVGID_1_" gradientUnits="userSpaceOnUse" x1="1.0229" y1="99.1138" x2="86.5654" y2="99.1138">
			<stop  offset="0" style="stop-color:#E1B327"/>
			<stop  offset="0.1701" style="stop-color:#E1AF27"/>
			<stop  offset="0.3327" style="stop-color:#E2A427"/>
			<stop  offset="0.4923" style="stop-color:#E49026"/>
			<stop  offset="0.6501" style="stop-color:#E57526"/>
			<stop  offset="0.8065" style="stop-color:#E85225"/>
			<stop  offset="0.9599" style="stop-color:#EB2824"/>
			<stop  offset="1" style="stop-color:#EC1C24"/>
		</linearGradient>
		<path class="st1" d="M86.3,75.3c0,0,1.1,7.1-0.8,14.2c0,0-33.9,26.9-69.8,12.7c0,0,28.5,19.7,64.8,0c0,0-10.5,19-35,20.7
			c0,0-11.5,0.5-21.7-4.8c0,0-21.9-9.6-22.7-33.1c4.1,2.5,23.3,12.6,47.1,8.4C58.5,91.5,72.6,87.2,86.3,75.3z"/>
	</g>
	<g>
		<g>
			<path class="st0" d="M147.5,41.9h7.2v54H147v-42l-16.6,20.9h-1.4l-16.8-20.9v42h-7.7v-54h7.3l17.9,22.2L147.5,41.9z"/>
			<path class="st0" d="M185.4,41.9c7.3,0,13.4,2.6,18.2,7.7c4.9,5.1,7.3,11.6,7.3,19.3c0,7.7-2.5,14.2-7.4,19.2
				c-4.9,5.1-11.1,7.6-18.5,7.6c-7.1,0-13.1-2.5-17.8-7.6c-4.7-5.1-7.1-11.4-7.1-19.1c0-7.8,2.4-14.3,7.2-19.5
				C172.1,44.5,178.1,41.9,185.4,41.9z M185.7,49.1c-5.4,0-9.9,1.9-13.3,5.6c-3.5,3.8-5.2,8.6-5.2,14.4c0,5.7,1.7,10.4,5.2,14.1
				c3.5,3.8,7.9,5.6,13.1,5.6c5.3,0,9.7-1.9,13.2-5.8c3.5-3.8,5.3-8.6,5.3-14.3c0-5.6-1.8-10.2-5.3-14
				C195.2,51,190.8,49.1,185.7,49.1z"/>
			<path class="st0" d="M216.3,95.9v-54h13.5c5.5,0,9.8,1.4,13,4.1c3.2,2.7,4.8,6.4,4.8,11c0,3.1-0.8,5.9-2.4,8.2
				c-1.6,2.3-3.8,4-6.8,5.1c1.7,1.1,3.4,2.7,5.1,4.6c1.6,2,4,5.4,7,10.2c1.9,3.1,3.4,5.4,4.5,6.9l2.9,3.9h-9.2l-2.4-3.6
				c-0.1-0.1-0.2-0.3-0.5-0.7l-1.5-2.1l-2.4-3.9l-2.6-4.2c-1.6-2.2-3.1-4-4.4-5.3c-1.3-1.3-2.5-2.3-3.6-2.8
				c-1.1-0.6-2.9-0.9-5.4-0.9h-2v23.5H216.3z M226.4,48.5h-2.3v17h2.9c3.9,0,6.6-0.3,8.1-1c1.5-0.7,2.6-1.7,3.4-3
				c0.8-1.4,1.2-2.9,1.2-4.6c0-1.7-0.5-3.2-1.4-4.6c-0.9-1.4-2.2-2.4-3.8-2.9C232.9,48.8,230.2,48.5,226.4,48.5z"/>
		</g>
		<linearGradient id="SVGID_2_" gradientUnits="userSpaceOnUse" x1="104.4259" y1="112.1171" x2="258.037" y2="112.1171">
			<stop  offset="0" style="stop-color:#E3B42B"/>
			<stop  offset="0.1696" style="stop-color:#E3B02B"/>
			<stop  offset="0.3317" style="stop-color:#E4A52A"/>
			<stop  offset="0.4908" style="stop-color:#E59129"/>
			<stop  offset="0.6481" style="stop-color:#E77628"/>
			<stop  offset="0.8041" style="stop-color:#E95327"/>
			<stop  offset="0.957" style="stop-color:#EB2925"/>
			<stop  offset="1" style="stop-color:#EC1C24"/>
		</linearGradient>
		<path class="st2" d="M113.3,112.6c-0.1-1.5-0.2-3.4-0.2-4.5h0c-0.4,1.1-0.8,2.3-1.4,3.8l-2.1,5.5H109l-2-5.4
			c-0.6-1.6-1-2.8-1.3-3.9h0c0,1.2-0.1,3-0.2,4.7l-0.3,4.7h-0.7l0.7-10.2h0.8l2.2,5.9c0.5,1.3,0.8,2.3,1.1,3.3h0
			c0.3-0.9,0.6-1.9,1.1-3.3l2.3-5.9h0.9l0.7,10.2h-0.7L113.3,112.6z M120.9,115.7c0,0.6,0,1.2,0.1,1.7h-0.7l-0.1-1h0
			c-0.4,0.6-1.2,1.2-2.3,1.2c-1.5,0-2.1-1-2.1-2c0-1.7,1.5-2.7,4.4-2.7v-0.2c0-0.7-0.1-2.1-1.9-2.1c-0.6,0-1.3,0.2-1.8,0.5l-0.2-0.5
			c0.7-0.4,1.5-0.6,2.1-0.6c2.1,0,2.5,1.6,2.5,2.9V115.7z M120.1,113.5c-1.6,0-3.7,0.2-3.7,1.9c0,1,0.7,1.5,1.4,1.5
			c1.2,0,1.9-0.7,2.1-1.4c0.1-0.2,0.1-0.3,0.1-0.4V113.5z M123.7,113.6L123.7,113.6c0.2-0.2,0.5-0.6,0.7-0.8l2.6-2.7h0.9l-2.9,3
			l3.3,4.2h-0.9l-3-3.8l-0.7,0.8v3H123v-10.7h0.7V113.6z M129.4,113.7c0,2.3,1.3,3.2,2.8,3.2c1.1,0,1.6-0.2,2-0.4l0.2,0.6
			c-0.3,0.2-1,0.5-2.3,0.5c-2.1,0-3.4-1.5-3.4-3.6c0-2.4,1.4-3.9,3.3-3.9c2.4,0,2.8,2.2,2.8,3.3c0,0.2,0,0.3,0,0.4H129.4z
			 M134,113.1c0-1-0.4-2.5-2.2-2.5c-1.6,0-2.3,1.4-2.4,2.5H134z M147.8,112.2c0,3.6-2.2,5.4-4.6,5.4c-2.5,0-4.5-2-4.5-5.2
			c0-3.3,2-5.4,4.6-5.4C145.9,107,147.8,109,147.8,112.2z M139.6,112.4c0,2.3,1.3,4.6,3.7,4.6c2.4,0,3.8-2.2,3.8-4.7
			c0-2.2-1.2-4.6-3.7-4.6C140.8,107.6,139.6,110,139.6,112.4z M155,115.6c0,0.6,0,1.2,0.1,1.8h-0.7l0-1.3h0
			c-0.4,0.7-1.2,1.5-2.5,1.5c-0.9,0-2.5-0.5-2.5-3.2v-4.2h0.7v4.1c0,1.6,0.5,2.7,1.9,2.7c1.1,0,1.8-0.7,2.1-1.5
			c0.1-0.2,0.1-0.5,0.1-0.8v-4.5h0.7V115.6z M157.2,112.3c0-0.7,0-1.5-0.1-2.2h0.7l0,1.5h0c0.3-0.9,1.1-1.6,2.1-1.6
			c0.1,0,0.2,0,0.3,0v0.7c-0.1,0-0.2,0-0.3,0c-1,0-1.7,0.9-1.9,2c0,0.2-0.1,0.5-0.1,0.7v4h-0.7V112.3z M164.1,112.9v0.6h-3.6v-0.6
			H164.1z M171.6,106.7v9c0,0.5,0,1.2,0.1,1.7H171L171,116h0c-0.4,0.8-1.2,1.5-2.6,1.5c-1.8,0-3.1-1.5-3.1-3.7
			c0-2.4,1.5-3.9,3.3-3.9c1.3,0,2.1,0.6,2.4,1.3h0v-4.6H171.6z M170.9,113c0-0.2,0-0.5-0.1-0.7c-0.2-1-1.1-1.8-2.3-1.8
			c-1.6,0-2.6,1.4-2.6,3.2c0,1.6,0.8,3.1,2.5,3.1c1,0,2-0.7,2.3-1.9c0.1-0.2,0.1-0.4,0.1-0.6V113z M173.8,112.3c0-0.7,0-1.5-0.1-2.2
			h0.7l0,1.5h0c0.3-0.9,1.1-1.6,2.1-1.6c0.1,0,0.2,0,0.3,0v0.7c-0.1,0-0.2,0-0.3,0c-1,0-1.7,0.9-1.9,2c0,0.2-0.1,0.5-0.1,0.7v4h-0.7
			V112.3z M178,113.7c0,2.3,1.3,3.2,2.8,3.2c1.1,0,1.6-0.2,2-0.4l0.2,0.6c-0.3,0.2-1,0.5-2.3,0.5c-2.1,0-3.4-1.5-3.4-3.6
			c0-2.4,1.4-3.9,3.3-3.9c2.4,0,2.8,2.2,2.8,3.3c0,0.2,0,0.3,0,0.4H178z M182.6,113.1c0-1-0.4-2.5-2.2-2.5c-1.6,0-2.3,1.4-2.4,2.5
			H182.6z M189.5,115.7c0,0.6,0,1.2,0.1,1.7H189l-0.1-1h0c-0.4,0.6-1.2,1.2-2.3,1.2c-1.5,0-2.1-1-2.1-2c0-1.7,1.5-2.7,4.4-2.7v-0.2
			c0-0.7-0.1-2.1-1.9-2.1c-0.6,0-1.3,0.2-1.8,0.5l-0.2-0.5c0.7-0.4,1.5-0.6,2.1-0.6c2.1,0,2.5,1.6,2.5,2.9V115.7z M188.8,113.5
			c-1.6,0-3.7,0.2-3.7,1.9c0,1,0.7,1.5,1.4,1.5c1.2,0,1.9-0.7,2.1-1.4c0.1-0.2,0.1-0.3,0.1-0.4V113.5z M191.6,111.9
			c0-0.7,0-1.2-0.1-1.7h0.7l0,1.3h0c0.5-0.8,1.2-1.4,2.4-1.4c1,0,1.8,0.7,2.1,1.6h0c0.2-0.4,0.5-0.8,0.7-1c0.5-0.4,1-0.6,1.7-0.6
			c0.7,0,2.4,0.4,2.4,3.1v4.3h-0.7v-4.2c0-1.6-0.6-2.6-1.9-2.6c-0.9,0-1.6,0.7-1.9,1.4c-0.1,0.2-0.1,0.5-0.1,0.7v4.7h-0.7v-4.5
			c0-1.3-0.6-2.3-1.8-2.3c-1,0-1.7,0.8-2,1.6c-0.1,0.2-0.1,0.5-0.1,0.7v4.5h-0.7V111.9z M203.5,116.4c0.4,0.2,1,0.5,1.6,0.5
			c1.1,0,1.7-0.6,1.7-1.4c0-0.8-0.5-1.2-1.5-1.6c-1.2-0.5-1.8-1.1-1.8-2c0-1,0.8-2,2.2-2c0.7,0,1.2,0.2,1.6,0.5L207,111
			c-0.3-0.2-0.7-0.4-1.4-0.4c-0.9,0-1.4,0.6-1.4,1.3c0,0.8,0.5,1.1,1.5,1.5c1.2,0.5,1.9,1,1.9,2.1c0,1.2-1,2.1-2.4,2.1
			c-0.7,0-1.4-0.2-1.8-0.5L203.5,116.4z M212.3,107.4c0.6-0.2,1.5-0.2,2.2-0.2c1.3,0,2.2,0.3,2.7,0.9c0.4,0.4,0.7,1.1,0.7,1.8
			c0,1.4-0.8,2.2-2,2.7v0c0.8,0.3,1.3,1,1.6,2.2c0.3,1.6,0.5,2.3,0.8,2.7h-0.7c-0.2-0.3-0.4-1.2-0.6-2.5c-0.3-1.5-1-2.1-2.3-2.2H213
			v4.7h-0.7V107.4z M213,112.1h1.6c1.6,0,2.6-0.9,2.6-2.2c0-1.6-1.1-2.2-2.7-2.2c-0.7,0-1.2,0.1-1.5,0.1V112.1z M219.8,113.7
			c0,2.3,1.3,3.2,2.8,3.2c1.1,0,1.6-0.2,2-0.4l0.2,0.6c-0.3,0.2-1,0.5-2.3,0.5c-2.1,0-3.4-1.5-3.4-3.6c0-2.4,1.4-3.9,3.3-3.9
			c2.4,0,2.8,2.2,2.8,3.3c0,0.2,0,0.3,0,0.4H219.8z M224.5,113.1c0-1-0.4-2.5-2.2-2.5c-1.6,0-2.3,1.4-2.4,2.5H224.5z M231.3,115.7
			c0,0.6,0,1.2,0.1,1.7h-0.7l-0.1-1h0c-0.4,0.6-1.2,1.2-2.3,1.2c-1.5,0-2.1-1-2.1-2c0-1.7,1.5-2.7,4.4-2.7v-0.2
			c0-0.7-0.1-2.1-1.9-2.1c-0.6,0-1.3,0.2-1.8,0.5l-0.2-0.5c0.7-0.4,1.5-0.6,2.1-0.6c2.1,0,2.5,1.6,2.5,2.9V115.7z M230.6,113.5
			c-1.6,0-3.7,0.2-3.7,1.9c0,1,0.7,1.5,1.4,1.5c1.2,0,1.9-0.7,2.1-1.4c0.1-0.2,0.1-0.3,0.1-0.4V113.5z M233.5,106.7h0.7v10.7h-0.7
			V106.7z M237.4,108.1c0,0.3-0.2,0.6-0.6,0.6c-0.3,0-0.6-0.3-0.6-0.6c0-0.3,0.3-0.6,0.6-0.6C237.1,107.4,237.4,107.7,237.4,108.1z
			 M236.4,117.4v-7.2h0.7v7.2H236.4z M238.4,117l3.9-5.1c0.3-0.3,0.5-0.7,0.8-1v0h-4.4v-0.6h5.3l0,0.5l-3.9,5.1
			c-0.3,0.3-0.5,0.7-0.8,1v0h4.7v0.6h-5.6V117z M245.2,113.7c0,2.3,1.3,3.2,2.8,3.2c1.1,0,1.6-0.2,2-0.4l0.2,0.6
			c-0.3,0.2-1,0.5-2.3,0.5c-2.1,0-3.4-1.5-3.4-3.6c0-2.4,1.4-3.9,3.3-3.9c2.4,0,2.8,2.2,2.8,3.3c0,0.2,0,0.3,0,0.4H245.2z
			 M249.8,113.1c0-1-0.4-2.5-2.2-2.5c-1.6,0-2.3,1.4-2.4,2.5H249.8z M258,106.7v9c0,0.5,0,1.2,0.1,1.7h-0.6l-0.1-1.4h0
			c-0.4,0.8-1.2,1.5-2.6,1.5c-1.8,0-3.1-1.5-3.1-3.7c0-2.4,1.5-3.9,3.3-3.9c1.3,0,2.1,0.6,2.4,1.3h0v-4.6H258z M257.3,113
			c0-0.2,0-0.5-0.1-0.7c-0.2-1-1.1-1.8-2.3-1.8c-1.6,0-2.6,1.4-2.6,3.2c0,1.6,0.8,3.1,2.5,3.1c1,0,2-0.7,2.3-1.9
			c0.1-0.2,0.1-0.4,0.1-0.6V113z"/>
	</g>
</g>
</svg>
